<svg width="16" height="19" viewBox="0 0 16 19" fill="none" xmlns="http://www.w3.org/2000/svg">
<path fill-rule="evenodd" clip-rule="evenodd" d="M8.97405 18.5413C11.0898 17.0976 15.9167 13.3048 15.9167 8.74992C15.9167 4.37766 12.3723 0.833252 8.00001 0.833252C3.62776 0.833252 0.0833435 4.37766 0.0833435 8.74992C0.0833435 13.3048 4.91026 17.0976 7.02597 18.5413C7.6176 18.945 8.38242 18.945 8.97405 18.5413ZM8.00001 11.2499C9.38072 11.2499 10.5 10.1306 10.5 8.74992C10.5 7.36921 9.38072 6.24992 8.00001 6.24992C6.6193 6.24992 5.50001 7.36921 5.50001 8.74992C5.50001 10.1306 6.6193 11.2499 8.00001 11.2499Z" fill="#898989"/>
</svg>
