<svg width="16" height="16" viewBox="0 0 16 16" fill="none" xmlns="http://www.w3.org/2000/svg">
<path d="M11.4307 11.0668L10.9152 11.8401C10.8123 11.9944 10.6762 12.1261 10.4969 12.1735C9.90947 12.3287 8.34991 12.3988 5.97551 10.0244C3.60112 7.65004 3.6712 6.09046 3.82642 5.50302C3.87381 5.32368 4.0055 5.1876 4.15984 5.0847L4.93309 4.5692C5.50879 4.1854 5.66436 3.40757 5.28056 2.83187L3.82015 0.64126C3.48515 0.138762 2.83934 -0.0532187 2.28424 0.18468L1.62545 0.467021C1.12499 0.681503 0.716751 1.06643 0.47325 1.55343C0.269813 1.96031 0.112135 2.38877 0.0907716 2.84317C0.0234458 4.27515 0.337442 7.80312 4.26714 11.7328C8.19683 15.6625 11.7248 15.9765 13.1568 15.9092C13.6112 15.8878 14.0396 15.7301 14.4465 15.5267C14.9335 15.2832 15.3184 14.8749 15.5329 14.3745L15.8152 13.7157C16.0531 13.1606 15.8612 12.5148 15.3587 12.1798L13.1681 10.7194C12.5924 10.3356 11.8145 10.4911 11.4307 11.0668Z" fill="#898989"/>
</svg>
