<svg width="24" height="22" viewBox="0 0 24 22" fill="none" xmlns="http://www.w3.org/2000/svg">
<path d="M9.7085 12.9643L9.62181 12.0684L9.62181 12.0684L9.7085 12.9643ZM19.3698 12.0293L19.2832 11.1335L19.2832 11.1335L19.3698 12.0293ZM1.75586 0.85C1.2588 0.85 0.855859 1.25294 0.855859 1.75C0.855859 2.24706 1.2588 2.65 1.75586 2.65V0.85ZM4.98644 3.07585L5.87313 2.92165L4.98644 3.07585ZM5.36456 5.25L4.47786 5.40421L4.47786 5.40421L5.36456 5.25ZM6.24759 10.3274L7.13428 10.1732L7.13428 10.1732L6.24759 10.3274ZM19.1567 5.65826L19.1833 4.75866L19.1833 4.75866L19.1567 5.65826ZM22.048 6.80394L21.2416 7.20342L21.2416 7.20342L22.048 6.80394ZM21.1962 5.92654L21.6194 5.13223L21.6194 5.13223L21.1962 5.92654ZM21.278 11.6533L20.818 10.8797L20.818 10.8797L21.278 11.6533ZM22.0654 10.786L21.2511 10.4027L21.2511 10.4027L22.0654 10.786ZM7.71897 12.958L8.02931 12.1132L8.02931 12.1132L7.71897 12.958ZM6.78169 12.2439L6.04957 12.7674L6.04957 12.7674L6.78169 12.2439ZM4.32214 1.83674L4.68878 1.01481L4.68878 1.01481L4.32214 1.83674ZM4.74472 2.19217L3.99776 2.69422L3.99776 2.69422L4.74472 2.19217ZM9.79519 13.8601L19.4565 12.9251L19.2832 11.1335L9.62181 12.0684L9.79519 13.8601ZM3.4101 0.85H1.75586V2.65H3.4101V0.85ZM4.09975 3.23006L4.47786 5.40421L6.25125 5.09579L5.87313 2.92165L4.09975 3.23006ZM4.47786 5.40421L5.3609 10.4816L7.13428 10.1732L6.25125 5.09579L4.47786 5.40421ZM19.1833 4.75866L5.39118 4.35039L5.33793 6.14961L19.1301 6.55787L19.1833 4.75866ZM23.1559 8.8505C23.1559 8.32271 23.1565 7.87375 23.127 7.50578C23.0966 7.12717 23.0301 6.75885 22.8545 6.40446L21.2416 7.20342C21.2738 7.26858 21.3112 7.38119 21.3328 7.64981C21.3552 7.92906 21.3559 8.29362 21.3559 8.8505H23.1559ZM19.1301 6.55787C19.6867 6.57435 20.0511 6.58581 20.3296 6.61648C20.5974 6.64598 20.7089 6.68666 20.7731 6.72085L21.6194 5.13223C21.2704 4.94628 20.9042 4.86887 20.5266 4.82729C20.1597 4.78688 19.7109 4.77427 19.1833 4.75866L19.1301 6.55787ZM22.8545 6.40446C22.5857 5.86183 22.1538 5.41695 21.6194 5.13223L20.7731 6.72085C20.9758 6.82885 21.1396 6.9976 21.2416 7.20342L22.8545 6.40446ZM19.4565 12.9251C19.9505 12.8773 20.3722 12.8371 20.7167 12.7765C21.0721 12.714 21.4144 12.6193 21.738 12.4269L20.818 10.8797C20.7572 10.9159 20.6534 10.96 20.4047 11.0037C20.1452 11.0494 19.805 11.083 19.2832 11.1335L19.4565 12.9251ZM21.3559 8.8505C21.3559 9.37482 21.3552 9.71667 21.3348 9.97937C21.3152 10.2311 21.2812 10.3387 21.2511 10.4027L22.8797 11.1693C23.04 10.8287 23.1013 10.4789 23.1293 10.1191C23.1565 9.77038 23.1559 9.34678 23.1559 8.8505H21.3559ZM21.738 12.4269C22.2355 12.131 22.6332 11.6931 22.8797 11.1693L21.2511 10.4027C21.1576 10.6014 21.0068 10.7675 20.818 10.8797L21.738 12.4269ZM9.62181 12.0684C9.08718 12.1202 8.7381 12.1533 8.46816 12.1581C8.20924 12.1626 8.09671 12.138 8.02931 12.1132L7.40863 13.8028C7.76945 13.9354 8.13124 13.9643 8.49982 13.9578C8.85736 13.9515 9.28895 13.9091 9.79519 13.8601L9.62181 12.0684ZM5.3609 10.4816C5.44804 10.9827 5.5217 11.4101 5.61055 11.7565C5.70213 12.1136 5.826 12.4547 6.04957 12.7674L7.5138 11.7205C7.47204 11.6621 7.41845 11.5601 7.35411 11.3093C7.28703 11.0478 7.22631 10.7024 7.13428 10.1732L5.3609 10.4816ZM8.02931 12.1132C7.82193 12.0371 7.6423 11.9002 7.5138 11.7205L6.04957 12.7674C6.38833 13.2412 6.86191 13.602 7.40863 13.8028L8.02931 12.1132ZM3.4101 2.65C3.66277 2.65 3.80269 2.65059 3.90498 2.6583C3.99597 2.66515 3.99002 2.67407 3.9555 2.65867L4.68878 1.01481C4.45981 0.912668 4.23703 0.878215 4.04022 0.863386C3.8547 0.849408 3.63582 0.85 3.4101 0.85V2.65ZM5.87313 2.92165C5.83446 2.69926 5.79754 2.48353 5.75198 2.30315C5.70365 2.11179 5.63153 1.89821 5.49167 1.69012L3.99776 2.69422C3.97667 2.66285 3.98444 2.65545 4.00678 2.74393C4.0319 2.84338 4.05646 2.98113 4.09975 3.23006L5.87313 2.92165ZM3.9555 2.65867C3.97264 2.66632 3.98729 2.67864 3.99776 2.69422L5.49167 1.69012C5.29273 1.39412 5.01449 1.1601 4.68878 1.01481L3.9555 2.65867ZM10.3559 18.25C10.3559 18.8575 9.86337 19.35 9.25586 19.35V21.15C10.8575 21.15 12.1559 19.8516 12.1559 18.25H10.3559ZM9.25586 19.35C8.64835 19.35 8.15586 18.8575 8.15586 18.25H6.35586C6.35586 19.8516 7.65423 21.15 9.25586 21.15V19.35ZM8.15586 18.25C8.15586 17.6425 8.64835 17.15 9.25586 17.15V15.35C7.65423 15.35 6.35586 16.6484 6.35586 18.25H8.15586ZM9.25586 17.15C9.86337 17.15 10.3559 17.6425 10.3559 18.25H12.1559C12.1559 16.6484 10.8575 15.35 9.25586 15.35V17.15ZM19.8559 18.25C19.8559 18.8575 19.3634 19.35 18.7559 19.35V21.15C20.3575 21.15 21.6559 19.8516 21.6559 18.25H19.8559ZM18.7559 19.35C18.1483 19.35 17.6559 18.8575 17.6559 18.25H15.8559C15.8559 19.8516 17.1542 21.15 18.7559 21.15V19.35ZM17.6559 18.25C17.6559 17.6425 18.1483 17.15 18.7559 17.15V15.35C17.1542 15.35 15.8559 16.6484 15.8559 18.25H17.6559ZM18.7559 17.15C19.3634 17.15 19.8559 17.6425 19.8559 18.25H21.6559C21.6559 16.6484 20.3575 15.35 18.7559 15.35V17.15Z" fill="#262F56"/>
</svg>
